<svg xmlns="http://www.w3.org/2000/svg" viewBox="0 0 442.73 62.22"><defs><style>.cls-1{fill:#d8d8d8;}.cls-2{fill:#b2b3b3;}.cls-3{fill:#ce0e2d;}</style></defs><title>Asset 1</title><g id="Layer_2" data-name="Layer 2"><g id="Layer_1-2" data-name="Layer 1"><path class="cls-1" d="M33.92,22.1h6.26c3,0,6.15.62,6.15,4.27a3.79,3.79,0,0,1-2.89,3.71v0a4,4,0,0,1,3.68,4.11c0,3.51-3.33,4.67-6.31,4.67H33.92Zm3.7,6.72h2.69c1.13,0,2.32-.48,2.32-1.83s-1.33-1.76-2.49-1.76H37.62Zm0,7H41c1.16,0,2.47-.49,2.47-2S41.63,32,40.42,32h-2.8Z"/><path class="cls-1" d="M54.6,22.1h3.06L65,38.9H60.8l-1.45-3.55H52.82l-1.4,3.55H47.34ZM56,27l-2,5.22h4.1Z"/><path class="cls-1" d="M77.42,26.47a4,4,0,0,0-3.18-1.38c-2.8,0-4.86,2.28-4.86,5.41s2.06,5.42,4.74,5.42a4,4,0,0,0,3.47-1.81l3.08,2.3a7.3,7.3,0,0,1-6.07,2.92c-5.25,0-9.07-3.44-9.07-8.83s3.82-8.83,9.07-8.83a7.2,7.2,0,0,1,5.67,2.47Z"/><path class="cls-1" d="M82.61,22.1h3.7v7l6.53-7h4.84L90.2,29.91l8.12,9H93.15l-6.84-8v8h-3.7Z"/><path class="cls-2" d="M99.37,22.1h6.27c2.94,0,6.14.62,6.14,4.27a3.79,3.79,0,0,1-2.89,3.71v0a4,4,0,0,1,3.68,4.11c0,3.51-3.32,4.67-6.31,4.67H99.37Zm3.71,6.72h2.68c1.14,0,2.33-.48,2.33-1.83s-1.33-1.76-2.5-1.76h-2.51Zm0,7h3.32c1.16,0,2.47-.49,2.47-2s-1.78-1.85-3-1.85h-2.8Z"/><path class="cls-2" d="M114.67,22.1h3.7V35.49h6.86V38.9H114.67Z"/><path class="cls-2" d="M130.59,22.1h3.07L141,38.9h-4.18l-1.45-3.55h-6.53l-1.4,3.55h-4.08ZM132,27,130,32.21h4.11Z"/><path class="cls-2" d="M141.55,35.49l8.52-10.12h-8.22V22.1h12.7v3.27L146.2,35.49h8.64V38.9H141.55Z"/><path class="cls-2" d="M156.87,21.5H169.1v3.66h-8.26v3.36h7.8v3.66h-7.8v3.66h8.72V39.5H156.87Z"/><path class="cls-3" d="M6.91,8.24s5.49,4.79,4.74,9c-.33,1.89-2.85,5-1.49,8,1.46,3.19,2.22,9.36-4.36,7.77s-6-9.54-1.17-13.74S7.87,10.37,6.91,8.24Z"/><path class="cls-3" d="M11.92,22.63c-.36,3.23,3.22,6.46.37,10.84-2,3,1.05,7.3,4.94,6.53,4.26-.85,5.31-3.54,5.2-6.67-.15-4-1.73-5.07-5.24-8-3.8-3.23-.87-9.32-.87-9.32S12.32,19.06,11.92,22.63Z"/><path class="cls-3" d="M.35,32.1c1.2,1.48,3.53,3.22,8,3.32,1.35,0,.29,2.54,3,4.8a7.68,7.68,0,0,0,7.14,1.37c1-.36,1.9-.72,1.19.19-3.16,4.06-8.65,3.8-12.57,2.33C2.42,42.37,1.25,39,.48,36.81-.34,34.49.08,31.77.35,32.1Z"/><path class="cls-1" d="M215.89,31.12a4.31,4.31,0,0,0-1.27-.95,4.21,4.21,0,0,0-.79-.32,4.54,4.54,0,0,0,1.48-1.15,3.82,3.82,0,0,0,.88-2.59,4.33,4.33,0,0,0-.6-2.4A4.26,4.26,0,0,0,214,22.29a6.6,6.6,0,0,0-2.11-.66,17.6,17.6,0,0,0-2.28-.16H203V39.18h7.31a11.86,11.86,0,0,0,2.35-.24,6.8,6.8,0,0,0,2.15-.84,4.84,4.84,0,0,0,1.6-1.55,4.46,4.46,0,0,0,.62-2.42,4.67,4.67,0,0,0-.28-1.64A4.2,4.2,0,0,0,215.89,31.12ZM212,35a2.29,2.29,0,0,1-.72.3,4,4,0,0,1-.83.09H207.3V32.09h2.58a6.68,6.68,0,0,1,1,.07,3.36,3.36,0,0,1,.92.24,1.6,1.6,0,0,1,.65.49,1.2,1.2,0,0,1,.24.81,1.51,1.51,0,0,1-.19.8A1.73,1.73,0,0,1,212,35Zm-.29-9a1.36,1.36,0,0,1,.19.73,1.53,1.53,0,0,1-.17.74,1.41,1.41,0,0,1-.46.48,2.11,2.11,0,0,1-.67.28,3.57,3.57,0,0,1-.8.09H207.3v-3.1h2.29a5.08,5.08,0,0,1,.85.08,2.8,2.8,0,0,1,.74.25A1.41,1.41,0,0,1,211.67,26Z"/><path class="cls-1" d="M223.89,35.43l4.64-4a11.31,11.31,0,0,0,.92-.91,5.64,5.64,0,0,0,.75-1.06,5,5,0,0,0,.5-1.28,6.25,6.25,0,0,0,.18-1.56,5.81,5.81,0,0,0-.45-2.36,4.71,4.71,0,0,0-1.25-1.71,5.35,5.35,0,0,0-1.86-1,7.6,7.6,0,0,0-2.27-.34,8.58,8.58,0,0,0-2.42.34,5.72,5.72,0,0,0-2,1,5.14,5.14,0,0,0-1.36,1.72,6.38,6.38,0,0,0-.58,2.42l0,.28,4.19.3,0-.27a2.24,2.24,0,0,1,.57-1.39,1.76,1.76,0,0,1,1.38-.54,2,2,0,0,1,1.3.44,1.37,1.37,0,0,1,.53,1.15,1.72,1.72,0,0,1-.44,1.17,10.79,10.79,0,0,1-1,1l-6.75,6.07v4.25H231V35.43Z"/><path class="cls-2" d="M251.15,26.33a3.7,3.7,0,0,0-1.37-1,4.55,4.55,0,0,0-1.87-.36,4.76,4.76,0,0,0-2,.41,4.87,4.87,0,0,0-1.58,1.15,5.46,5.46,0,0,0-1,1.75,6.37,6.37,0,0,0-.37,2.21,6.29,6.29,0,0,0,.37,2.21,5.57,5.57,0,0,0,1,1.74,4.68,4.68,0,0,0,1.54,1.15,4.5,4.5,0,0,0,1.9.41,4.25,4.25,0,0,0,2.05-.48,4.1,4.1,0,0,0,1.48-1.36l3.14,2.35a6.45,6.45,0,0,1-2.75,2.25,8.64,8.64,0,0,1-3.44.73,10.53,10.53,0,0,1-3.7-.63A8.36,8.36,0,0,1,241.64,37a8.2,8.2,0,0,1-1.92-2.84,10.4,10.4,0,0,1,0-7.45,8.2,8.2,0,0,1,1.92-2.84,8.51,8.51,0,0,1,2.93-1.81,10.76,10.76,0,0,1,3.7-.62,8.89,8.89,0,0,1,1.51.13,8.47,8.47,0,0,1,1.55.42,6.63,6.63,0,0,1,1.46.78A5.62,5.62,0,0,1,254.05,24Z"/><path class="cls-2" d="M256.42,21.88h3.78V35.53h7V39H256.42Z"/><path class="cls-2" d="M268.11,30.45a9.68,9.68,0,0,1,.69-3.73,8.2,8.2,0,0,1,1.92-2.84,8.51,8.51,0,0,1,2.93-1.81,11.35,11.35,0,0,1,7.4,0A8.51,8.51,0,0,1,284,23.88a8.2,8.2,0,0,1,1.92,2.84,10.4,10.4,0,0,1,0,7.45A8.2,8.2,0,0,1,284,37a8.36,8.36,0,0,1-2.93,1.81,11.18,11.18,0,0,1-7.4,0A8.36,8.36,0,0,1,270.72,37a8.2,8.2,0,0,1-1.92-2.84A9.63,9.63,0,0,1,268.11,30.45Zm3.92,0a6.29,6.29,0,0,0,.37,2.21,5,5,0,0,0,1.08,1.74,4.93,4.93,0,0,0,1.68,1.15,6.05,6.05,0,0,0,4.38,0,4.93,4.93,0,0,0,1.68-1.15,5,5,0,0,0,1.08-1.74,6.29,6.29,0,0,0,.37-2.21,6.37,6.37,0,0,0-.37-2.21,4.94,4.94,0,0,0-2.76-2.9,6.05,6.05,0,0,0-4.38,0,4.94,4.94,0,0,0-2.76,2.9A6.37,6.37,0,0,0,272,30.45Z"/><path class="cls-2" d="M303.36,32.41a8.39,8.39,0,0,1-.46,2.8,6,6,0,0,1-3.63,3.7,8.36,8.36,0,0,1-3.12.54,8.48,8.48,0,0,1-3.15-.54,6,6,0,0,1-3.63-3.7,8.39,8.39,0,0,1-.46-2.8V21.88h3.78V32.26a4.22,4.22,0,0,0,.25,1.48,3.49,3.49,0,0,0,.72,1.17,3.08,3.08,0,0,0,1.1.77,3.35,3.35,0,0,0,1.39.28,3.31,3.31,0,0,0,1.38-.28,3.23,3.23,0,0,0,1.09-.77,3.63,3.63,0,0,0,.71-1.17,4.22,4.22,0,0,0,.25-1.48V21.88h3.78Z"/><path class="cls-2" d="M306.6,21.88h5.66a16,16,0,0,1,3.91.46,9,9,0,0,1,3.23,1.49,7.28,7.28,0,0,1,2.19,2.67,9,9,0,0,1,.81,4,8.09,8.09,0,0,1-.79,3.67,7.79,7.79,0,0,1-2.12,2.66,9.22,9.22,0,0,1-3.07,1.63,11.66,11.66,0,0,1-3.65.56H306.6Zm3.77,13.65h2a10.4,10.4,0,0,0,2.43-.27,5.28,5.28,0,0,0,1.95-.88,4.27,4.27,0,0,0,1.3-1.62,5.83,5.83,0,0,0,.47-2.46,4.84,4.84,0,0,0-.47-2.19,4.55,4.55,0,0,0-1.27-1.54,5.65,5.65,0,0,0-1.88-.9,8.39,8.39,0,0,0-2.26-.3h-2.23Z"/><path class="cls-2" d="M340.11,26.07a2.68,2.68,0,0,0-1.25-.86,4.34,4.34,0,0,0-1.49-.28,3.56,3.56,0,0,0-.84.1,3.06,3.06,0,0,0-.83.3,2.06,2.06,0,0,0-.63.54,1.4,1.4,0,0,0-.24.83,1.37,1.37,0,0,0,.58,1.18,5.29,5.29,0,0,0,1.47.7c.59.2,1.22.39,1.9.58a8.05,8.05,0,0,1,1.9.83,4.6,4.6,0,0,1,1.46,1.42,4.35,4.35,0,0,1,.58,2.4,5.57,5.57,0,0,1-.53,2.49,5.2,5.2,0,0,1-1.44,1.77,6.41,6.41,0,0,1-2.11,1,9.48,9.48,0,0,1-2.53.34,9.11,9.11,0,0,1-3.09-.51,7.75,7.75,0,0,1-2.66-1.65L333,34.34a3.9,3.9,0,0,0,1.47,1.2,4.15,4.15,0,0,0,1.82.42,3.69,3.69,0,0,0,.93-.11,3.06,3.06,0,0,0,.85-.32,1.93,1.93,0,0,0,.61-.56,1.42,1.42,0,0,0,.23-.8,1.45,1.45,0,0,0-.6-1.22,5.32,5.32,0,0,0-1.49-.76c-.59-.21-1.24-.42-1.93-.63a8.65,8.65,0,0,1-1.94-.85,4.6,4.6,0,0,1-1.48-1.4,4,4,0,0,1-.6-2.3,5.05,5.05,0,0,1,.55-2.42,5.2,5.2,0,0,1,1.45-1.74A6.14,6.14,0,0,1,335,21.8a8.39,8.39,0,0,1,2.45-.35,9.4,9.4,0,0,1,2.8.41,6.44,6.44,0,0,1,2.45,1.38Z"/><path class="cls-2" d="M348.6,25.22h-4.89V21.88h13.55v3.34h-4.89V39H348.6Z"/><path class="cls-2" d="M358,30.45a9.68,9.68,0,0,1,.69-3.73,8.2,8.2,0,0,1,1.92-2.84,8.51,8.51,0,0,1,2.93-1.81,11.35,11.35,0,0,1,7.4,0,8.51,8.51,0,0,1,2.93,1.81,8.2,8.2,0,0,1,1.92,2.84,10.4,10.4,0,0,1,0,7.45A8.2,8.2,0,0,1,373.88,37,8.36,8.36,0,0,1,371,38.82a11.18,11.18,0,0,1-7.4,0A8.36,8.36,0,0,1,360.62,37a8.2,8.2,0,0,1-1.92-2.84A9.63,9.63,0,0,1,358,30.45Zm3.92,0a6.29,6.29,0,0,0,.37,2.21,5,5,0,0,0,1.08,1.74,4.93,4.93,0,0,0,1.68,1.15,6.05,6.05,0,0,0,4.38,0,4.93,4.93,0,0,0,1.68-1.15,5,5,0,0,0,1.08-1.74,6.29,6.29,0,0,0,.37-2.21,6.37,6.37,0,0,0-.37-2.21,4.94,4.94,0,0,0-2.76-2.9,6.05,6.05,0,0,0-4.38,0,4.94,4.94,0,0,0-2.76,2.9A6.37,6.37,0,0,0,361.93,30.45Z"/><path class="cls-2" d="M378.81,21.88h6.63a11.64,11.64,0,0,1,2.48.26A5.77,5.77,0,0,1,390,23a4.19,4.19,0,0,1,1.4,1.6,5.35,5.35,0,0,1,.52,2.5,5,5,0,0,1-.94,3.09,4.3,4.3,0,0,1-2.76,1.61L392.56,39H388l-3.58-6.85h-1.86V39h-3.78ZM382.59,29h2.22c.34,0,.7,0,1.08,0a3.31,3.31,0,0,0,1-.21,1.72,1.72,0,0,0,.76-.57,1.74,1.74,0,0,0,.3-1.09,1.86,1.86,0,0,0-.26-1,1.75,1.75,0,0,0-.68-.59,3,3,0,0,0-.94-.28,7.51,7.51,0,0,0-1-.08h-2.47Z"/><path class="cls-2" d="M399.89,21.88H403L410.46,39H406.2l-1.47-3.63h-6.66L396.65,39h-4.17Zm1.45,5-2.08,5.32h4.18Z"/><path class="cls-2" d="M427.44,37.8A13.7,13.7,0,0,1,424,39.06a17.54,17.54,0,0,1-3.7.39,10.53,10.53,0,0,1-3.7-.63A8.36,8.36,0,0,1,413.63,37a8.2,8.2,0,0,1-1.92-2.84,10.4,10.4,0,0,1,0-7.45,8.2,8.2,0,0,1,1.92-2.84,8.51,8.51,0,0,1,2.93-1.81,10.76,10.76,0,0,1,3.7-.62,13.67,13.67,0,0,1,3.78.49,7.34,7.34,0,0,1,3,1.71l-2.66,2.9a5.52,5.52,0,0,0-1.74-1.21,6.3,6.3,0,0,0-2.42-.41,5.66,5.66,0,0,0-2.19.41,4.88,4.88,0,0,0-1.68,1.15,5.06,5.06,0,0,0-1.08,1.75,6.37,6.37,0,0,0-.37,2.21,6.29,6.29,0,0,0,.37,2.21,5,5,0,0,0,1.08,1.74,4.75,4.75,0,0,0,1.68,1.15,5.66,5.66,0,0,0,2.19.41,7.1,7.1,0,0,0,2.13-.28,7.9,7.9,0,0,0,1.42-.56V32.33h-3.07V28.85h6.7Z"/><path class="cls-2" d="M430.66,21.88H442.3v3.49h-7.87v3.19h7.43V32h-7.43v3.49h8.3V39H430.66Z"/><polygon class="cls-3" points="194.54 1.22 178.54 62.22 177.32 61 193.32 0 194.54 1.22"/></g></g></svg>