<?xml version="1.0" encoding="UTF-8" standalone="no"?>
<!-- Created with Inkscape (http://www.inkscape.org/) -->

<svg
   xmlns:dc="http://purl.org/dc/elements/1.1/"
   xmlns:cc="http://creativecommons.org/ns#"
   xmlns:rdf="http://www.w3.org/1999/02/22-rdf-syntax-ns#"
   xmlns:svg="http://www.w3.org/2000/svg"
   xmlns="http://www.w3.org/2000/svg"
   xmlns:xlink="http://www.w3.org/1999/xlink"
   xmlns:sodipodi="http://sodipodi.sourceforge.net/DTD/sodipodi-0.dtd"
   xmlns:inkscape="http://www.inkscape.org/namespaces/inkscape"
   width="1000"
   height="1000"
   viewBox="0 0 999.99997 999.99997"
   id="svg2"
   version="1.1"
   inkscape:version="0.91 r13725"
   sodipodi:docname="diva-flat-with-gradient.svg">
  <defs
     id="defs4">
    <linearGradient
       inkscape:collect="always"
       id="linearGradient4317">
      <stop
         style="stop-color:#ffffff;stop-opacity:0.2"
         offset="0"
         id="stop4319" />
      <stop
         style="stop-color:#ffffff;stop-opacity:0"
         offset="1"
         id="stop4321" />
    </linearGradient>
    <linearGradient
       inkscape:collect="always"
       xlink:href="#linearGradient4317"
       id="linearGradient4323"
       x1="152"
       y1="175"
       x2="616"
       y2="590"
       gradientUnits="userSpaceOnUse"
       gradientTransform="matrix(2.1321963,0,0,2.4038462,-321.96163,-420.67307)" />
    <clipPath
       clipPathUnits="userSpaceOnUse"
       id="clipPath4503">
      <g
         transform="translate(0,-52.362229)"
         style="display:inline"
         id="g4505">
        <path
           inkscape:connector-curvature="0"
           id="path4507"
           d="m 244.63824,427.50408 c -3.90102,0 -68.22058,26.9844 -80.87824,99.4632 A 75.824142,71.628732 0 0 0 92.966596,480.95932 75.824142,71.628732 0 0 0 17.141853,552.58938 75.824142,71.628732 0 0 0 92.966596,624.21397 75.824142,71.628732 0 0 0 163.79324,577.9345 c 12.73251,72.34378 76.94721,99.28588 80.845,99.28588 7.62289,0 17.09892,-47.99249 17.10545,-124.81938 l 0,-0.0397 0,-0.0397 c -0.006,-76.82496 -9.48256,-124.81753 -17.10545,-124.81753 z"
           style="opacity:1;fill:#424242;fill-opacity:1;stroke:none;stroke-width:0.28370556;stroke-miterlimit:4;stroke-dasharray:none;stroke-opacity:1" />
        <path
           id="path4509"
           d="m 265.15095,390.76948 c -1.94032,-3.36073 -10.68497,-72.19363 45.4596,-119.14817 a 75.427794,71.254256 60.000726 0 1 -74.84738,-38.1047 75.427794,71.254256 60.000726 0 1 23.99502,-100.9507 75.427794,71.254256 60.000726 0 1 99.41851,29.69772 75.427794,71.254256 60.000726 0 1 -4.64148,84.03589 c 68.65688,-25.01373 123.80699,16.90647 125.74569,20.26441 3.79151,6.56713 -32.8407,38.60154 -99.02356,76.81981 l -0.0336,0.0197 -0.0336,0.0198 c -66.18873,38.20688 -112.24786,53.91345 -116.03938,47.34632 z"
           style="opacity:1;fill:#212121;fill-opacity:1;stroke:none;stroke-width:0.28222221;stroke-miterlimit:4;stroke-dasharray:none;stroke-opacity:1"
           inkscape:connector-curvature="0" />
        <path
           id="path4511"
           d="m 265.15095,714.92197 c -1.94032,3.36073 -10.68497,72.19363 45.4596,119.14817 a 71.254256,75.427794 29.999274 0 0 -74.84738,38.1047 71.254256,75.427794 29.999274 0 0 23.99502,100.9507 71.254256,75.427794 29.999274 0 0 99.41852,-29.6977 71.254256,75.427794 29.999274 0 0 -4.64148,-84.03591 c 68.65688,25.01373 123.80699,-16.90647 125.74569,-20.26441 3.79151,-6.56713 -32.8407,-38.60154 -99.02356,-76.81981 l -0.0336,-0.0197 -0.0336,-0.0198 C 315.00142,724.06133 268.94229,708.35476 265.15077,714.92189 Z"
           style="opacity:1;fill:#616161;fill-opacity:1;stroke:none;stroke-width:0.28222221;stroke-miterlimit:4;stroke-dasharray:none;stroke-opacity:1"
           inkscape:connector-curvature="0" />
        <path
           inkscape:connector-curvature="0"
           id="path4513"
           d="m 755.2473,677.22037 c 3.90102,0 68.22058,-26.9844 80.87824,-99.4632 a 75.824142,71.628732 0 0 0 70.7934,46.00796 75.824142,71.628732 0 0 0 75.82474,-71.63006 75.824142,71.628732 0 0 0 -75.82474,-71.62459 75.824142,71.628732 0 0 0 -70.82664,46.27947 c -12.73251,-72.34378 -76.94721,-99.28588 -80.845,-99.28588 -7.62289,0 -17.09892,47.99249 -17.10545,124.81938 l 0,0.0397 0,0.0397 c 0.006,76.82496 9.48256,124.81753 17.10545,124.81753 z"
           style="opacity:1;fill:#9e9e9e;fill-opacity:1;stroke:none;stroke-width:0.28370556;stroke-miterlimit:4;stroke-dasharray:none;stroke-opacity:1" />
        <path
           id="path4515"
           d="m 735.54021,714.92198 c 1.94032,3.36073 10.68497,72.19363 -45.4596,119.14817 a 75.427794,71.254256 60.000726 0 1 74.84738,38.1047 75.427794,71.254256 60.000726 0 1 -23.99502,100.9507 75.427794,71.254256 60.000726 0 1 -99.41851,-29.69772 75.427794,71.254256 60.000726 0 1 4.64148,-84.03589 c -68.65688,25.01373 -123.80699,-16.90647 -125.74569,-20.26441 -3.79151,-6.56713 32.8407,-38.60154 99.02356,-76.81981 l 0.0336,-0.0197 0.0336,-0.0198 c 66.18873,-38.20688 112.24786,-53.91345 116.03938,-47.34632 z"
           style="opacity:1;fill:#757575;fill-opacity:1;stroke:none;stroke-width:0.28222221;stroke-miterlimit:4;stroke-dasharray:none;stroke-opacity:1"
           inkscape:connector-curvature="0" />
        <path
           id="path4517"
           d="m 735.54022,390.76948 c 1.94032,-3.36073 10.68497,-72.19363 -45.4596,-119.14817 a 71.254256,75.427794 29.999274 0 0 74.84738,-38.1047 71.254256,75.427794 29.999274 0 0 -23.99502,-100.9507 71.254256,75.427794 29.999274 0 0 -99.41852,29.6977 71.254256,75.427794 29.999274 0 0 4.64148,84.03591 c -68.65688,-25.01373 -123.80699,16.90647 -125.74569,20.26441 -3.79151,6.56713 32.8407,38.60154 99.02356,76.81981 l 0.0336,0.0197 0.0336,0.0198 c 66.18874,38.20688 112.24787,53.91345 116.03939,47.34632 z"
           style="opacity:1;fill:#0d47a1;fill-opacity:1;stroke:none;stroke-width:0.28222221;stroke-miterlimit:4;stroke-dasharray:none;stroke-opacity:1"
           inkscape:connector-curvature="0" />
      </g>
    </clipPath>
  </defs>
  <sodipodi:namedview
     id="base"
     pagecolor="#ffffff"
     bordercolor="#666666"
     borderopacity="1.0"
     inkscape:pageopacity="0.0"
     inkscape:pageshadow="2"
     inkscape:zoom="1"
     inkscape:cx="288.61282"
     inkscape:cy="411.79745"
     inkscape:document-units="px"
     inkscape:current-layer="layer3"
     showgrid="false"
     showguides="true"
     inkscape:guide-bbox="true"
     units="px"
     inkscape:window-width="2560"
     inkscape:window-height="1377"
     inkscape:window-x="1912"
     inkscape:window-y="-8"
     inkscape:window-maximized="1">
    <sodipodi:guide
       position="-175.7424,4999.9998"
       orientation="0,1"
       id="guide4166"
       inkscape:label=""
       inkscape:color="rgb(0,0,255)" />
    <sodipodi:guide
       position="499.99998,499.99998"
       orientation="0,1"
       id="guide4237"
       inkscape:label=""
       inkscape:color="rgb(0,0,255)" />
    <sodipodi:guide
       position="499.99998,499.99998"
       orientation="1,0"
       id="guide4239"
       inkscape:label=""
       inkscape:color="rgb(0,0,255)" />
  </sodipodi:namedview>
  <metadata
     id="metadata7">
    <rdf:RDF>
      <cc:Work
         rdf:about="">
        <dc:format>image/svg+xml</dc:format>
        <dc:type
           rdf:resource="http://purl.org/dc/dcmitype/StillImage" />
        <dc:title></dc:title>
      </cc:Work>
    </rdf:RDF>
  </metadata>
  <g
     inkscape:label="Logo"
     inkscape:groupmode="layer"
     id="layer1"
     transform="translate(0,-52.362229)"
     style="display:inline">
    <g
       id="g4325">
      <path
         inkscape:connector-curvature="0"
         id="path4171"
         d="m 244.63824,427.50408 c -3.90102,0 -68.22058,26.9844 -80.87824,99.4632 A 75.824142,71.628732 0 0 0 92.966596,480.95932 75.824142,71.628732 0 0 0 17.141853,552.58938 75.824142,71.628732 0 0 0 92.966596,624.21397 75.824142,71.628732 0 0 0 163.79324,577.9345 c 12.73251,72.34378 76.94721,99.28588 80.845,99.28588 7.62289,0 17.09892,-47.99249 17.10545,-124.81938 l 0,-0.0397 0,-0.0397 c -0.006,-76.82496 -9.48256,-124.81753 -17.10545,-124.81753 z"
         style="opacity:1;fill:#424242;fill-opacity:1;stroke:none;stroke-width:0.28370556;stroke-miterlimit:4;stroke-dasharray:none;stroke-opacity:1" />
      <path
         id="path4171-4-4"
         d="m 265.15095,390.76948 c -1.94032,-3.36073 -10.68497,-72.19363 45.4596,-119.14817 a 75.427794,71.254256 60.000726 0 1 -74.84738,-38.1047 75.427794,71.254256 60.000726 0 1 23.99502,-100.9507 75.427794,71.254256 60.000726 0 1 99.41851,29.69772 75.427794,71.254256 60.000726 0 1 -4.64148,84.03589 c 68.65688,-25.01373 123.80699,16.90647 125.74569,20.26441 3.79151,6.56713 -32.8407,38.60154 -99.02356,76.81981 l -0.0336,0.0197 -0.0336,0.0198 c -66.18873,38.20688 -112.24786,53.91345 -116.03938,47.34632 z"
         style="opacity:1;fill:#212121;fill-opacity:1;stroke:none;stroke-width:0.28222221;stroke-miterlimit:4;stroke-dasharray:none;stroke-opacity:1"
         inkscape:connector-curvature="0" />
      <path
         id="path4171-4-4-3"
         d="m 265.15095,714.92197 c -1.94032,3.36073 -10.68497,72.19363 45.4596,119.14817 a 71.254256,75.427794 29.999274 0 0 -74.84738,38.1047 71.254256,75.427794 29.999274 0 0 23.99502,100.9507 71.254256,75.427794 29.999274 0 0 99.41852,-29.6977 71.254256,75.427794 29.999274 0 0 -4.64148,-84.03591 c 68.65688,25.01373 123.80699,-16.90647 125.74569,-20.26441 3.79151,-6.56713 -32.8407,-38.60154 -99.02356,-76.81981 l -0.0336,-0.0197 -0.0336,-0.0198 C 315.00142,724.06133 268.94229,708.35476 265.15077,714.92189 Z"
         style="opacity:1;fill:#616161;fill-opacity:1;stroke:none;stroke-width:0.28222221;stroke-miterlimit:4;stroke-dasharray:none;stroke-opacity:1"
         inkscape:connector-curvature="0" />
      <path
         inkscape:connector-curvature="0"
         id="path4171-2"
         d="m 755.2473,677.22037 c 3.90102,0 68.22058,-26.9844 80.87824,-99.4632 a 75.824142,71.628732 0 0 0 70.7934,46.00796 75.824142,71.628732 0 0 0 75.82474,-71.63006 75.824142,71.628732 0 0 0 -75.82474,-71.62459 75.824142,71.628732 0 0 0 -70.82664,46.27947 c -12.73251,-72.34378 -76.94721,-99.28588 -80.845,-99.28588 -7.62289,0 -17.09892,47.99249 -17.10545,124.81938 l 0,0.0397 0,0.0397 c 0.006,76.82496 9.48256,124.81753 17.10545,124.81753 z"
         style="opacity:1;fill:#9e9e9e;fill-opacity:1;stroke:none;stroke-width:0.28370556;stroke-miterlimit:4;stroke-dasharray:none;stroke-opacity:1" />
      <path
         id="path4171-4-4-6"
         d="m 735.54021,714.92198 c 1.94032,3.36073 10.68497,72.19363 -45.4596,119.14817 a 75.427794,71.254256 60.000726 0 1 74.84738,38.1047 75.427794,71.254256 60.000726 0 1 -23.99502,100.9507 75.427794,71.254256 60.000726 0 1 -99.41851,-29.69772 75.427794,71.254256 60.000726 0 1 4.64148,-84.03589 c -68.65688,25.01373 -123.80699,-16.90647 -125.74569,-20.26441 -3.79151,-6.56713 32.8407,-38.60154 99.02356,-76.81981 l 0.0336,-0.0197 0.0336,-0.0198 c 66.18873,-38.20688 112.24786,-53.91345 116.03938,-47.34632 z"
         style="opacity:1;fill:#757575;fill-opacity:1;stroke:none;stroke-width:0.28222221;stroke-miterlimit:4;stroke-dasharray:none;stroke-opacity:1"
         inkscape:connector-curvature="0" />
      <path
         id="path4171-4-4-3-9"
         d="m 735.54022,390.76948 c 1.94032,-3.36073 10.68497,-72.19363 -45.4596,-119.14817 a 71.254256,75.427794 29.999274 0 0 74.84738,-38.1047 71.254256,75.427794 29.999274 0 0 -23.99502,-100.9507 71.254256,75.427794 29.999274 0 0 -99.41852,29.6977 71.254256,75.427794 29.999274 0 0 4.64148,84.03591 c -68.65688,-25.01373 -123.80699,16.90647 -125.74569,20.26441 -3.79151,6.56713 32.8407,38.60154 99.02356,76.81981 l 0.0336,0.0197 0.0336,0.0198 c 66.18874,38.20688 112.24787,53.91345 116.03939,47.34632 z"
         style="opacity:1;fill:#0d47a1;fill-opacity:1;stroke:none;stroke-width:0.28222221;stroke-miterlimit:4;stroke-dasharray:none;stroke-opacity:1"
         inkscape:connector-curvature="0" />
    </g>
  </g>
  <g
     inkscape:groupmode="layer"
     id="layer3"
     inkscape:label="Gradient"
     style="display:inline">
    <rect
       style="opacity:1;fill:url(#linearGradient4323);fill-opacity:1;stroke:none;stroke-width:0.1;stroke-miterlimit:4;stroke-dasharray:none;stroke-opacity:1"
       id="rect4315"
       width="1000"
       height="1000"
       x="0"
       y="1.5258789e-005"
       clip-path="url(#clipPath4503)" />
  </g>
</svg>
