<?xml version="1.0" encoding="UTF-8" standalone="no"?>
<!-- Created with Inkscape (http://www.inkscape.org/) -->

<svg
   xmlns:dc="http://purl.org/dc/elements/1.1/"
   xmlns:cc="http://creativecommons.org/ns#"
   xmlns:rdf="http://www.w3.org/1999/02/22-rdf-syntax-ns#"
   xmlns:svg="http://www.w3.org/2000/svg"
   xmlns="http://www.w3.org/2000/svg"
   xmlns:sodipodi="http://sodipodi.sourceforge.net/DTD/sodipodi-0.dtd"
   xmlns:inkscape="http://www.inkscape.org/namespaces/inkscape"
   width="97.627724mm"
   height="10.442223mm"
   viewBox="0 0 345.92501 37.000001"
   id="svg2"
   version="1.1"
   inkscape:version="0.91 r13725"
   sodipodi:docname="group6tech.svg">
  <defs
     id="defs4" />
  <sodipodi:namedview
     id="base"
     pagecolor="#ffffff"
     bordercolor="#666666"
     borderopacity="1.0"
     inkscape:pageopacity="0.0"
     inkscape:pageshadow="2"
     inkscape:zoom="3.2373193"
     inkscape:cx="310.89243"
     inkscape:cy="-57.583929"
     inkscape:document-units="px"
     inkscape:current-layer="text3336"
     showgrid="false"
     inkscape:window-width="2560"
     inkscape:window-height="1377"
     inkscape:window-x="1912"
     inkscape:window-y="-8"
     inkscape:window-maximized="1"
     fit-margin-top="0"
     fit-margin-left="0"
     fit-margin-right="0"
     fit-margin-bottom="0" />
  <metadata
     id="metadata7">
    <rdf:RDF>
      <cc:Work
         rdf:about="">
        <dc:format>image/svg+xml</dc:format>
        <dc:type
           rdf:resource="http://purl.org/dc/dcmitype/StillImage" />
        <dc:title></dc:title>
      </cc:Work>
    </rdf:RDF>
  </metadata>
  <g
     inkscape:label="Layer 1"
     inkscape:groupmode="layer"
     id="layer1"
     transform="translate(-181.4,-442.36221)">
    <g
       style="font-style:normal;font-weight:normal;font-size:40px;line-height:125%;font-family:sans-serif;letter-spacing:0px;word-spacing:0px;fill:#000000;fill-opacity:1;stroke:none;stroke-width:1px;stroke-linecap:butt;stroke-linejoin:miter;stroke-opacity:1"
       id="text3336">
      <path
         d="m 194.36,454.48221 c 0,0.36 -0.2,0.44 -0.36,0.52 -0.24,-0.12 -0.24,-0.2 -0.56,-0.76 -0.84,-1.6 -2.2,-3.28 -5.4,-3.28 -3.64,0 -6.64,3.76 -6.64,8.76 0,2.16 0.08,4.52 1.2,6.76 1,2 2.8,3.76 5.52,3.76 2.92,0 4.4,-1.92 4.76,-2.56 0.36,-0.64 0.4,-0.72 0.68,-0.72 l 0.16,0.2 0,3.04 c 0,0.96 0,3.28 -1.72,4.48 -0.12,0.08 -1.36,0.96 -3.32,0.96 -2.28,0 -2.92,-0.76 -3.48,-1.48 l -1.48,0 0,3.64 c 2.08,0.56 4.24,0.64 4.92,0.64 2.48,0 4.08,-0.68 4.64,-0.92 2.68,-1.12 3.44,-3.6 3.48,-3.8 0.12,-0.4 0.48,-2.36 0.48,-3.52 l 0,-18.84 -2.88,0 0,3.12 z m -5.28,12.84 c -3.8,0 -4.12,-4.84 -4.12,-6.16 0,-1.84 0,-7.52 4.16,-7.52 2.56,0 4.76,2.08 4.76,6.96 0,5.76 -3.44,6.72 -4.8,6.72 z"
         style="font-style:normal;font-variant:normal;font-weight:500;font-stretch:normal;font-family:'Bell Gothic Std';-inkscape-font-specification:'Bell Gothic Std Medium';fill:#ffffff"
         id="path3341"
         inkscape:connector-curvature="0" />
      <path
         d="m 202.76,472.36221 3.72,0 0,-11.96 c 1.48,-2.04 3.52,-3.72 6,-3.72 0.44,0 0.88,0.04 1.32,0.12 l 0,-5.92 c -0.56,0.16 -3.12,1.2 -5.8,5.2 -0.2,0.28 -1,1.64 -1.24,1.92 l -0.44,0 c -0.12,0 -0.2,-0.24 -0.2,-0.48 l 0,-6.64 -3.36,1.36 0,20.12 z"
         style="font-style:normal;font-variant:normal;font-weight:500;font-stretch:normal;font-family:'Bell Gothic Std';-inkscape-font-specification:'Bell Gothic Std Medium';fill:#ffffff"
         id="path3343"
         inkscape:connector-curvature="0" />
      <path
         d="m 217.26687,461.52221 c 0,3.6 0.68,6.44 2.24,8.4 0.8,1 2.32,2.88 5.96,2.88 5.16,0 8.36,-4.52 8.36,-10.8 0,-2.04 -0.6,-5.12 -1.56,-6.96 -1.08,-2.04 -3,-4.12 -6.96,-4.12 -4.32,0 -8.04,3.32 -8.04,10.6 z m 8.2,-7.6 c 0.52,0 1.04,0.08 1.52,0.28 0.96,0.4 1.84,1.28 2.32,2.64 0.48,1.36 0.72,3.56 0.72,4.96 0,3 -0.68,7.88 -4.52,7.88 -4.16,0 -4.72,-5.92 -4.72,-7.52 0,-3.24 0.72,-8.24 4.68,-8.24 z"
         style="font-style:normal;font-variant:normal;font-weight:500;font-stretch:normal;font-family:'Bell Gothic Std';-inkscape-font-specification:'Bell Gothic Std Medium';fill:#ffffff"
         id="path3345"
         inkscape:connector-curvature="0" />
      <path
         d="m 252.70687,471.68221 0,-20.24 -3.48,0 0,14.08 c -2.04,2.88 -3.28,4.68 -5.04,4.68 -2.16,0 -2.16,-2.64 -2.16,-3.68 l 0,-15.08 -3.6,0 0,16.12 c 0,3.84 1.92,5.28 4.2,5.28 1.68,0 3.24,-0.76 4.48,-2.08 0.6,-0.68 1.2,-1.64 1.68,-2.16 0.12001,-0.12 0.2,-0.12 0.36,-0.12 0.16,0 0.24,0.36 0.24,0.52 l 0,3.88 3.32,-1.2 z"
         style="font-style:normal;font-variant:normal;font-weight:500;font-stretch:normal;font-family:'Bell Gothic Std';-inkscape-font-specification:'Bell Gothic Std Medium';fill:#ffffff"
         id="path3347"
         inkscape:connector-curvature="0" />
      <path
         d="m 270.26688,461.40221 c 0,6.6 -2.12,8.16 -3.88001,8.16 -2.23999,0 -5,-1.72 -5,-7.96 0,-3.56 1.72,-7.92 4.8,-7.92 3.76,0 4.08001,5.52 4.08001,7.72 z m -12.28001,17.96 3.52,0 0,-9.84 c 0,-0.2 0.04,-0.56 0.20001,-0.56 0.15999,0 0.32,0.12 0.88,1 1.19999,1.88 3.19999,2.68 4.56,2.68 3.67999,0 6.76,-3.72 6.76,-11.08 0,-2.4 -0.56001,-5.44 -1.72001,-7.6 -0.96,-1.8 -2.8,-3.24 -5.08,-3.24 -4.07999,0 -5,4.32 -5.39999,4.6 -0.08,0.08 -0.20001,0.12 -0.28001,0.12 -0.08,0 -0.27999,-0.16 -0.27999,-0.48 l 0,-4.48 -3.16001,1.4 0,27.48 z"
         style="font-style:normal;font-variant:normal;font-weight:500;font-stretch:normal;font-family:'Bell Gothic Std';-inkscape-font-specification:'Bell Gothic Std Medium';fill:#ffffff"
         id="path3349"
         inkscape:connector-curvature="0" />
      <path
         d="m 295.2025,442.56221 c -1.48,2 -3.32,4.48 -5.2,8.88 -0.72,1.72 -2.24,5.28 -2.24,11.2 0,7.32 4.52,10.6 9.44,10.6 7.4,0 9.88,-5.04 9.88,-9.68 0,-4.56 -3,-8.96 -9.2,-8.96 -3.04,0 -4.6,1.2 -5.56,1.96 0.2,-2.32 1.64,-5.24 2.68,-7 1.6,-2.64 3.28,-4.52 5.48,-7 l -5.28,0 z m -3.28,21.36 c 0,-4.28 3.12,-6.08 5.56,-6.08 3.92,0 5.56,3.48 5.56,6.16 0,4.04 -2.48,6.08 -5.6,6.08 -3.16,0 -5.52,-2.32 -5.52,-6.16 z"
         style="font-style:normal;font-variant:normal;font-weight:500;font-stretch:normal;font-family:'Bell Gothic Std';-inkscape-font-specification:'Bell Gothic Std Medium';fill:#ffffff"
         id="path3351"
         inkscape:connector-curvature="0" />
      <path
         d="m 320.32375,455.40221 2.96,0 0,12.88 c 0,4.16 3.84,4.48 4.8,4.48 1.2,0 3,-0.44 4.08,-1.04 l 0,-3.16 c -1,0.52 -2.32,1.16 -3.52,1.16 -1.76,0 -1.76,-1.48 -1.76,-1.88 l 0,-12.44 3.52,0 0,-2.28 -3.32,0 0,-8 -0.4,0 -3.36,3.24 0,4.76 -3,0 0,2.28 z"
         style="font-style:normal;font-variant:normal;font-weight:500;font-stretch:normal;font-family:'Bell Gothic Std';-inkscape-font-specification:'Bell Gothic Std Medium';fill:#ffffff"
         id="path3353"
         inkscape:connector-curvature="0" />
      <path
         d="m 350.92313,460.36221 c -0.12,-5.12 -2.8,-9.4 -7.84001,-9.4 -1.88,0 -8.2,0.88 -8.2,11.52 0,6.56 3.4,10.4 8.24001,10.4 3.8,0 5.44,-1.44 6.8,-2.64 l -2.08001,-1.92 c -0.64,0.6 -1.8,1.76 -4.24,1.76 -3.72,0 -5.08,-3.12 -5.03999,-7.8 l 12.39999,0 -0.04,-1.92 z m -12.24,-0.52 c 0.04,-0.72 0.08,-2.12 0.71999,-3.64 0.68,-1.6 2.04,-2.64 3.76,-2.64 2.84,0 4.20001,2.68 4.20001,6.28 l -8.68,0 z"
         style="font-style:normal;font-variant:normal;font-weight:500;font-stretch:normal;font-family:'Bell Gothic Std';-inkscape-font-specification:'Bell Gothic Std Medium';fill:#ffffff"
         id="path3355"
         inkscape:connector-curvature="0" />
      <path
         d="m 369.08312,455.72221 c -0.44,-1 -0.6,-1.28 -1.36,-2.28 -1.64,-2.2 -4.52,-2.44 -5.35999,-2.44 -1.44,0 -3.8,0.48 -5.64001,3 -2.12,2.92 -2.12,6.24 -2.12,8.24 0,1.16 0.20001,10.56 8.20001,10.56 3.56,0 6.07999,-2.2 6.76,-5.64 l -3.2,-1.44 c -0.32001,2.12 -1.36001,4 -3.56,4 -2.28001,0 -3.48001,-1.88 -4.04001,-3.4 -0.51999,-1.44 -0.63999,-3.72 -0.63999,-5.48 0,-4.32 1.87999,-6.92 4.35999,-6.92 2.44001,0 3.24,2.4 3.56,3.32 l 3.04,-1.52 z"
         style="font-style:normal;font-variant:normal;font-weight:500;font-stretch:normal;font-family:'Bell Gothic Std';-inkscape-font-specification:'Bell Gothic Std Medium';fill:#ffffff"
         id="path3357"
         inkscape:connector-curvature="0" />
      <path
         d="m 373.6175,472.36221 3.6,0 0,-14.24 c 0.76,-1.12 1.84,-2.72 2.88,-3.56 0.76,-0.6 1.56,-0.96 2.32,-0.96 1.52,0 2,1 2,2.52 l 0,16.24 3.56,0 0,-16.36 c 0,-3.04 -1.2,-5.08 -4.16,-5.08 -1.8,0 -3.72,0.6 -5.28,2.92 -0.36,0.52 -0.8,1.24 -1,1.24 -0.24,0 -0.32,-0.12 -0.32,-0.4 l 0,-12.32 -3.6,1.48 0,28.52 z"
         style="font-style:normal;font-variant:normal;font-weight:500;font-stretch:normal;font-family:'Bell Gothic Std';-inkscape-font-specification:'Bell Gothic Std Medium';fill:#ffffff"
         id="path3359"
         inkscape:connector-curvature="0" />
      <path
         d="m 393.7775,472.36221 3.6,0 0,-14.16 c 0,-0.04 0.32,-0.6 1.56,-2.24 0.2,-0.24 1.72,-2.24 3.6,-2.24 2.08,0 2.08,2.2 2.08,2.76 l 0,15.88 3.52,0 0,-15.96 c 0,-3.04 -0.68,-3.96 -1.52,-4.52 -0.8,-0.56 -1.76,-0.8 -2.72,-0.8 -2.12,0 -3.8,1 -5.04,2.68 l -0.8,1.08 c -0.2,0.24 -0.48,0.56 -0.68,0.56 -0.2,0 -0.32,-0.24 -0.32,-0.4 l 0,-4.08 -3.28,1.32 0,20.12 z"
         style="font-style:normal;font-variant:normal;font-weight:500;font-stretch:normal;font-family:'Bell Gothic Std';-inkscape-font-specification:'Bell Gothic Std Medium';fill:#ffffff"
         id="path3361"
         inkscape:connector-curvature="0" />
      <path
         d="m 412.6575,461.52221 c 0,3.6 0.68,6.44 2.24,8.4 0.8,1 2.32,2.88 5.96,2.88 5.16,0 8.36,-4.52 8.36,-10.8 0,-2.04 -0.6,-5.12 -1.56,-6.96 -1.08,-2.04 -3,-4.12 -6.96,-4.12 -4.32,0 -8.04,3.32 -8.04,10.6 z m 8.2,-7.6 c 0.52,0 1.04,0.08 1.52,0.28 0.96,0.4 1.84,1.28 2.32,2.64 0.48,1.36 0.72,3.56 0.72,4.96 0,3 -0.68,7.88 -4.52,7.88 -4.16,0 -4.72,-5.92 -4.72,-7.52 0,-3.24 0.72,-8.24 4.68,-8.24 z"
         style="font-style:normal;font-variant:normal;font-weight:500;font-stretch:normal;font-family:'Bell Gothic Std';-inkscape-font-specification:'Bell Gothic Std Medium';fill:#ffffff"
         id="path3363"
         inkscape:connector-curvature="0" />
      <path
         d="m 434.6975,472.36221 3.6,0 0,-29.8 -0.52,0 -3.08,1.28 0,28.52 z"
         style="font-style:normal;font-variant:normal;font-weight:500;font-stretch:normal;font-family:'Bell Gothic Std';-inkscape-font-specification:'Bell Gothic Std Medium';fill:#ffffff"
         id="path3365"
         inkscape:connector-curvature="0" />
      <path
         d="m 443.75125,461.52221 c 0,3.6 0.68,6.44 2.24,8.4 0.8,1 2.32,2.88 5.96,2.88 5.16,0 8.36,-4.52 8.36,-10.8 0,-2.04 -0.6,-5.12 -1.56,-6.96 -1.08,-2.04 -3,-4.12 -6.96,-4.12 -4.32,0 -8.04,3.32 -8.04,10.6 z m 8.2,-7.6 c 0.52,0 1.04,0.08 1.52,0.28 0.96,0.4 1.84,1.28 2.32,2.64 0.48,1.36 0.72,3.56 0.72,4.96 0,3 -0.68,7.88 -4.52,7.88 -4.16,0 -4.72,-5.92 -4.72,-7.52 0,-3.24 0.72,-8.24 4.68,-8.24 z"
         style="font-style:normal;font-variant:normal;font-weight:500;font-stretch:normal;font-family:'Bell Gothic Std';-inkscape-font-specification:'Bell Gothic Std Medium';fill:#ffffff"
         id="path3367"
         inkscape:connector-curvature="0" />
      <path
         d="m 476.39125,454.48221 c 0,0.36 -0.2,0.44 -0.36,0.52 -0.24,-0.12 -0.24,-0.2 -0.56,-0.76 -0.84,-1.6 -2.2,-3.28 -5.4,-3.28 -3.64,0 -6.64,3.76 -6.64,8.76 0,2.16 0.08,4.52 1.2,6.76 1,2 2.8,3.76 5.52,3.76 2.92,0 4.4,-1.92 4.76,-2.56 0.36,-0.64 0.4,-0.72 0.68,-0.72 l 0.16,0.2 0,3.04 c 0,0.96 0,3.28 -1.72,4.48 -0.12,0.08 -1.36,0.96 -3.32,0.96 -2.28,0 -2.92,-0.76 -3.48,-1.48 l -1.48,0 0,3.64 c 2.08,0.56 4.24,0.64 4.92,0.64 2.48,0 4.08,-0.68 4.64,-0.92 2.68,-1.12 3.44,-3.6 3.48,-3.8 0.12,-0.4 0.48,-2.36 0.48,-3.52 l 0,-18.84 -2.88,0 0,3.12 z m -5.28,12.84 c -3.8,0 -4.12,-4.84 -4.12,-6.16 0,-1.84 0,-7.52 4.16,-7.52 2.56,0 4.76,2.08 4.76,6.96 0,5.76 -3.44,6.72 -4.8,6.72 z"
         style="font-style:normal;font-variant:normal;font-weight:500;font-stretch:normal;font-family:'Bell Gothic Std';-inkscape-font-specification:'Bell Gothic Std Medium';fill:#ffffff"
         id="path3369"
         inkscape:connector-curvature="0" />
      <path
         d="m 485.27125,447.56221 4.64,0 0,-3.8 -4.64,0 0,3.8 z m 0.56,24.8 3.6,0 0,-20.92 -3.6,0 0,20.92 z"
         style="font-style:normal;font-variant:normal;font-weight:500;font-stretch:normal;font-family:'Bell Gothic Std';-inkscape-font-specification:'Bell Gothic Std Medium';fill:#ffffff"
         id="path3371"
         inkscape:connector-curvature="0" />
      <path
         d="m 510.845,460.36221 c -0.12,-5.12 -2.8,-9.4 -7.84,-9.4 -1.88,0 -8.2,0.88 -8.2,11.52 0,6.56 3.4,10.4 8.24,10.4 3.8,0 5.44,-1.44 6.8,-2.64 l -2.08,-1.92 c -0.64,0.6 -1.8,1.76 -4.24,1.76 -3.72,0 -5.08,-3.12 -5.04,-7.8 l 12.4,0 -0.04,-1.92 z m -12.24,-0.52 c 0.04,-0.72 0.08,-2.12 0.72,-3.64 0.68,-1.6 2.04,-2.64 3.76,-2.64 2.84,0 4.2,2.68 4.2,6.28 l -8.68,0 z"
         style="font-style:normal;font-variant:normal;font-weight:500;font-stretch:normal;font-family:'Bell Gothic Std';-inkscape-font-specification:'Bell Gothic Std Medium';fill:#ffffff"
         id="path3373"
         inkscape:connector-curvature="0" />
      <path
         d="m 526.445,452.76221 c -2.52,-1.56 -4.12,-1.64 -5.6,-1.64 -3.32,0 -6.24,2.12 -6.24,5.76 0,2.76 1.44,4.36 5.28,6.24 3.4,1.68 4.24,2.2 4.24,3.92 0,1.72 -1.28,3.28 -3.56,3.28 -1.68,0 -2.88,-0.52 -4.88,-2.12 l -1.4,2.72 c 1.24,0.8 3.12,2 6.16,2 4,0 6.88,-2.6 6.88,-6.32 0,-3.56 -2.72,-4.92 -3.88,-5.48 l -3.36,-1.68 c -1.28,-0.64 -2.52,-1.44 -2.52,-3 0,-1.36 0.92,-2.76 3.12,-2.76 2.08,0 3.16,0.8 4.72,1.92 l 1.04,-2.84 z"
         style="font-style:normal;font-variant:normal;font-weight:500;font-stretch:normal;font-family:'Bell Gothic Std';-inkscape-font-specification:'Bell Gothic Std Medium';fill:#ffffff"
         id="path3375"
         inkscape:connector-curvature="0" />
    </g>
  </g>
</svg>
